solid OpenSCAD_Model
  facet normal -1.000000 -0.000000 -0.000000
    outer loop
      vertex 0.000000 0.000000 0.000000
      vertex 0.000000 0.000000 10.000000
      vertex 0.000000 23.000000 0.000000
    endloop
  endfacet
  facet normal -1.000000 0.000000 0.000000
    outer loop
      vertex 0.000000 23.000000 0.000000
      vertex 0.000000 0.000000 10.000000
      vertex 0.000000 23.000000 10.000000
    endloop
  endfacet
  facet normal 0.000000 -1.000000 0.000000
    outer loop
      vertex 0.000000 0.000000 10.000000
      vertex 0.000000 0.000000 0.000000
      vertex 30.500000 0.000000 0.000000
    endloop
  endfacet
  facet normal 0.000000 -1.000000 0.000000
    outer loop
      vertex 26.500000 0.000000 8.000000
      vertex 0.000000 0.000000 10.000000
      vertex 30.500000 0.000000 0.000000
    endloop
  endfacet
  facet normal 0.000000 -1.000000 0.000000
    outer loop
      vertex 30.500000 0.000000 10.000000
      vertex 28.500000 0.000000 10.000000
      vertex 30.500000 0.000000 0.000000
    endloop
  endfacet
  facet normal 0.000000 -1.000000 0.000000
    outer loop
      vertex 28.500000 0.000000 10.000000
      vertex 28.500000 0.000000 8.000000
      vertex 30.500000 0.000000 0.000000
    endloop
  endfacet
  facet normal 0.000000 -1.000000 0.000000
    outer loop
      vertex 28.500000 0.000000 8.000000
      vertex 26.500000 0.000000 8.000000
      vertex 30.500000 0.000000 0.000000
    endloop
  endfacet
  facet normal 0.000000 -1.000000 0.000000
    outer loop
      vertex 26.500000 0.000000 8.000000
      vertex 24.500000 0.000000 10.000000
      vertex 0.000000 0.000000 10.000000
    endloop
  endfacet
  facet normal 0.000000 -0.000000 -1.000000
    outer loop
      vertex 6.000000 19.000000 0.000000
      vertex 0.000000 23.000000 0.000000
      vertex 30.500000 23.000000 0.000000
    endloop
  endfacet
  facet normal 0.000000 -0.000000 -1.000000
    outer loop
      vertex 22.500000 19.000000 0.000000
      vertex 6.000000 19.000000 0.000000
      vertex 30.500000 23.000000 0.000000
    endloop
  endfacet
  facet normal 0.000000 -0.000000 -1.000000
    outer loop
      vertex 0.000000 0.000000 0.000000
      vertex 0.000000 23.000000 0.000000
      vertex 6.000000 4.000000 0.000000
    endloop
  endfacet
  facet normal -0.000000 0.000000 -1.000000
    outer loop
      vertex 0.000000 0.000000 0.000000
      vertex 6.000000 4.000000 0.000000
      vertex 30.500000 0.000000 0.000000
    endloop
  endfacet
  facet normal 0.000000 0.000000 -1.000000
    outer loop
      vertex 22.500000 19.000000 0.000000
      vertex 30.500000 0.000000 0.000000
      vertex 22.500000 4.000000 0.000000
    endloop
  endfacet
  facet normal 0.000000 0.000000 -1.000000
    outer loop
      vertex 6.000000 4.000000 0.000000
      vertex 22.500000 4.000000 0.000000
      vertex 30.500000 0.000000 0.000000
    endloop
  endfacet
  facet normal 0.000000 0.000000 -1.000000
    outer loop
      vertex 30.500000 0.000000 0.000000
      vertex 22.500000 19.000000 0.000000
      vertex 30.500000 23.000000 0.000000
    endloop
  endfacet
  facet normal 0.000000 0.000000 -1.000000
    outer loop
      vertex 6.000000 4.000000 0.000000
      vertex 0.000000 23.000000 0.000000
      vertex 6.000000 19.000000 0.000000
    endloop
  endfacet
  facet normal 0.000000 1.000000 0.000000
    outer loop
      vertex 0.000000 23.000000 0.000000
      vertex 0.000000 23.000000 10.000000
      vertex 2.000000 23.000000 8.000000
    endloop
  endfacet
  facet normal 0.000000 1.000000 0.000000
    outer loop
      vertex 0.000000 23.000000 0.000000
      vertex 2.000000 23.000000 8.000000
      vertex 30.500000 23.000000 0.000000
    endloop
  endfacet
  facet normal 0.000000 1.000000 -0.000000
    outer loop
      vertex 6.000000 23.000000 10.000000
      vertex 30.500000 23.000000 0.000000
      vertex 4.000000 23.000000 8.000000
    endloop
  endfacet
  facet normal 0.000000 1.000000 0.000000
    outer loop
      vertex 2.000000 23.000000 8.000000
      vertex 4.000000 23.000000 8.000000
      vertex 30.500000 23.000000 0.000000
    endloop
  endfacet
  facet normal 0.000000 1.000000 0.000000
    outer loop
      vertex 30.500000 23.000000 0.000000
      vertex 6.000000 23.000000 10.000000
      vertex 30.500000 23.000000 10.000000
    endloop
  endfacet
  facet normal 0.000000 1.000000 0.000000
    outer loop
      vertex 2.000000 23.000000 8.000000
      vertex 0.000000 23.000000 10.000000
      vertex 2.000000 23.000000 10.000000
    endloop
  endfacet
  facet normal 0.000000 -0.000000 0.000000
    outer loop
      vertex 6.000000 0.000000 10.000000
      vertex 0.000000 0.000000 10.000000
      vertex 24.500000 0.000000 10.000000
    endloop
  endfacet
  facet normal 0.000000 -0.000000 1.000000
    outer loop
      vertex 6.000000 4.000000 10.000000
      vertex 6.000000 0.000000 10.000000
      vertex 24.500000 0.000000 10.000000
    endloop
  endfacet
  facet normal 0.000000 -0.000000 0.000000
    outer loop
      vertex 2.000000 0.000000 10.000000
      vertex 0.000000 0.000000 10.000000
      vertex 6.000000 0.000000 10.000000
    endloop
  endfacet
  facet normal 0.000000 0.000000 1.000000
    outer loop
      vertex 24.500000 4.000000 10.000000
      vertex 6.000000 4.000000 10.000000
      vertex 24.500000 0.000000 10.000000
    endloop
  endfacet
  facet normal -0.000000 0.000000 1.000000
    outer loop
      vertex 2.000000 0.000000 10.000000
      vertex 0.000000 23.000000 10.000000
      vertex 0.000000 0.000000 10.000000
    endloop
  endfacet
  facet normal 0.000000 0.000000 1.000000
    outer loop
      vertex 2.000000 0.000000 10.000000
      vertex 2.000000 23.000000 10.000000
      vertex 0.000000 23.000000 10.000000
    endloop
  endfacet
  facet normal 0.000000 -0.000000 0.000000
    outer loop
      vertex 24.500000 23.000000 10.000000
      vertex 24.500000 0.000000 10.000000
      vertex 24.500000 -0.000000 10.000000
    endloop
  endfacet
  facet normal -0.707107 0.000000 -0.707107
    outer loop
      vertex 24.500000 19.000000 10.000000
      vertex 26.500000 19.000000 8.000000
      vertex 24.500000 4.000000 10.000000
    endloop
  endfacet
  facet normal 0.000000 0.000000 -0.000000
    outer loop
      vertex 24.500000 19.000000 10.000000
      vertex 24.500000 4.000000 10.000000
      vertex 24.500000 23.000000 10.000000
    endloop
  endfacet
  facet normal -0.000000 -0.000000 -0.000000
    outer loop
      vertex 26.500000 0.000000 8.000000
      vertex 24.500000 -0.000000 10.000000
      vertex 24.500000 0.000000 10.000000
    endloop
  endfacet
  facet normal 0.000000 0.000000 -0.000000
    outer loop
      vertex 24.500000 4.000000 10.000000
      vertex 24.500000 0.000000 10.000000
      vertex 24.500000 23.000000 10.000000
    endloop
  endfacet
  facet normal -0.000000 -0.000000 -0.000000
    outer loop
      vertex 26.500000 0.000000 8.000000
      vertex 26.500000 -0.000000 8.000000
      vertex 24.500000 -0.000000 10.000000
    endloop
  endfacet
  facet normal -0.707107 0.000000 -0.707107
    outer loop
      vertex 24.500000 4.000000 10.000000
      vertex 26.500000 19.000000 8.000000
      vertex 26.500000 4.000000 8.000000
    endloop
  endfacet
  facet normal 0.000000 -0.000000 -0.000000
    outer loop
      vertex 26.500000 -0.000000 8.000000
      vertex 26.500000 0.000000 8.000000
      vertex 28.500000 0.000000 8.000000
    endloop
  endfacet
  facet normal 0.000000 -1.000000 -0.000000
    outer loop
      vertex 28.500000 -0.000000 10.000000
      vertex 24.500000 -0.000000 10.000000
      vertex 26.500000 -0.000000 8.000000
    endloop
  endfacet
  facet normal 0.000000 -1.000000 -0.000000
    outer loop
      vertex 28.500000 0.000000 8.000000
      vertex 28.500000 -0.000000 10.000000
      vertex 26.500000 -0.000000 8.000000
    endloop
  endfacet
  facet normal 0.000000 0.000000 0.000000
    outer loop
      vertex 28.500000 0.000000 8.000000
      vertex 28.500000 0.000000 10.000000
      vertex 28.500000 -0.000000 10.000000
    endloop
  endfacet
  facet normal 0.000000 0.000000 0.000000
    outer loop
      vertex 28.500000 -0.000000 10.000000
      vertex 28.500000 0.000000 10.000000
      vertex 28.500000 23.000000 10.000000
    endloop
  endfacet
  facet normal 0.000000 -0.000000 1.000000
    outer loop
      vertex 6.000000 23.000000 10.000000
      vertex 6.000000 19.000000 10.000000
      vertex 24.500000 19.000000 10.000000
    endloop
  endfacet
  facet normal -0.000000 0.000000 0.000000
    outer loop
      vertex 28.500000 23.000000 10.000000
      vertex 6.000000 23.000000 10.000000
      vertex 24.500000 23.000000 10.000000
    endloop
  endfacet
  facet normal -0.000000 0.000000 1.000000
    outer loop
      vertex 24.500000 23.000000 10.000000
      vertex 6.000000 23.000000 10.000000
      vertex 24.500000 19.000000 10.000000
    endloop
  endfacet
  facet normal 0.000000 0.000000 0.000000
    outer loop
      vertex 30.500000 23.000000 10.000000
      vertex 6.000000 23.000000 10.000000
      vertex 28.500000 23.000000 10.000000
    endloop
  endfacet
  facet normal -0.000000 0.000000 1.000000
    outer loop
      vertex 30.500000 0.000000 10.000000
      vertex 28.500000 23.000000 10.000000
      vertex 28.500000 0.000000 10.000000
    endloop
  endfacet
  facet normal 0.000000 0.000000 1.000000
    outer loop
      vertex 30.500000 23.000000 10.000000
      vertex 28.500000 23.000000 10.000000
      vertex 30.500000 0.000000 10.000000
    endloop
  endfacet
  facet normal 1.000000 0.000000 -0.000000
    outer loop
      vertex 30.500000 0.000000 10.000000
      vertex 30.500000 0.000000 0.000000
      vertex 30.500000 23.000000 0.000000
    endloop
  endfacet
  facet normal 1.000000 0.000000 0.000000
    outer loop
      vertex 30.500000 23.000000 10.000000
      vertex 30.500000 0.000000 10.000000
      vertex 30.500000 23.000000 0.000000
    endloop
  endfacet
  facet normal 1.000000 0.000000 0.000000
    outer loop
      vertex 6.000000 19.000000 0.000000
      vertex 6.000000 19.000000 6.500000
      vertex 6.000000 4.000000 6.500000
    endloop
  endfacet
  facet normal 1.000000 0.000000 0.000000
    outer loop
      vertex 6.000000 4.000000 0.000000
      vertex 6.000000 19.000000 0.000000
      vertex 6.000000 4.000000 6.500000
    endloop
  endfacet
  facet normal 0.000000 -1.000000 0.000000
    outer loop
      vertex 6.000000 19.000000 6.500000
      vertex 6.000000 19.000000 0.000000
      vertex 22.500000 19.000000 0.000000
    endloop
  endfacet
  facet normal 0.000000 -1.000000 0.000000
    outer loop
      vertex 26.500000 19.000000 4.000000
      vertex 6.000000 19.000000 6.500000
      vertex 22.500000 19.000000 4.000000
    endloop
  endfacet
  facet normal 0.000000 -1.000000 0.000000
    outer loop
      vertex 22.500000 19.000000 4.000000
      vertex 6.000000 19.000000 6.500000
      vertex 22.500000 19.000000 0.000000
    endloop
  endfacet
  facet normal 0.000000 -1.000000 0.000000
    outer loop
      vertex 26.500000 19.000000 8.000000
      vertex 6.000000 19.000000 6.500000
      vertex 26.500000 19.000000 4.000000
    endloop
  endfacet
  facet normal 0.000000 -1.000000 0.000000
    outer loop
      vertex 24.500000 19.000000 10.000000
      vertex 6.000000 19.000000 6.500000
      vertex 26.500000 19.000000 8.000000
    endloop
  endfacet
  facet normal 0.000000 -1.000000 0.000000
    outer loop
      vertex 6.000000 19.000000 10.000000
      vertex 6.000000 19.000000 6.500000
      vertex 24.500000 19.000000 10.000000
    endloop
  endfacet
  facet normal 0.000000 -1.000000 -0.000000
    outer loop
      vertex 4.000000 19.000000 6.500000
      vertex 6.000000 19.000000 10.000000
      vertex 4.000000 19.000000 8.000000
    endloop
  endfacet
  facet normal -0.000000 -1.000000 0.000000
    outer loop
      vertex 4.000000 19.000000 6.500000
      vertex 6.000000 19.000000 6.500000
      vertex 6.000000 19.000000 10.000000
    endloop
  endfacet
  facet normal -1.000000 0.000000 0.000000
    outer loop
      vertex 22.500000 19.000000 4.000000
      vertex 22.500000 19.000000 0.000000
      vertex 22.500000 4.000000 4.000000
    endloop
  endfacet
  facet normal -1.000000 0.000000 0.000000
    outer loop
      vertex 22.500000 4.000000 4.000000
      vertex 22.500000 19.000000 0.000000
      vertex 22.500000 4.000000 0.000000
    endloop
  endfacet
  facet normal 0.000000 1.000000 -0.000000
    outer loop
      vertex 6.000000 4.000000 10.000000
      vertex 24.500000 4.000000 10.000000
      vertex 4.000000 4.000000 8.000000
    endloop
  endfacet
  facet normal 0.000000 1.000000 0.000000
    outer loop
      vertex 4.000000 4.000000 8.000000
      vertex 24.500000 4.000000 10.000000
      vertex 26.500000 4.000000 8.000000
    endloop
  endfacet
  facet normal 0.000000 1.000000 -0.000000
    outer loop
      vertex 26.500000 4.000000 8.000000
      vertex 26.500000 4.000000 4.000000
      vertex 4.000000 4.000000 8.000000
    endloop
  endfacet
  facet normal 0.000000 1.000000 0.000000
    outer loop
      vertex 4.000000 4.000000 8.000000
      vertex 26.500000 4.000000 4.000000
      vertex 22.500000 4.000000 4.000000
    endloop
  endfacet
  facet normal 0.000000 1.000000 0.000000
    outer loop
      vertex 4.000000 4.000000 8.000000
      vertex 22.500000 4.000000 4.000000
      vertex 22.500000 4.000000 0.000000
    endloop
  endfacet
  facet normal 0.000000 1.000000 -0.000000
    outer loop
      vertex 6.000000 4.000000 6.500000
      vertex 22.500000 4.000000 0.000000
      vertex 6.000000 4.000000 0.000000
    endloop
  endfacet
  facet normal 0.000000 1.000000 0.000000
    outer loop
      vertex 4.000000 4.000000 8.000000
      vertex 22.500000 4.000000 0.000000
      vertex 6.000000 4.000000 6.500000
    endloop
  endfacet
  facet normal 0.000000 1.000000 0.000000
    outer loop
      vertex 4.000000 4.000000 6.500000
      vertex 4.000000 4.000000 8.000000
      vertex 6.000000 4.000000 6.500000
    endloop
  endfacet
  facet normal 0.707107 0.000000 -0.707107
    outer loop
      vertex 6.000000 4.000000 10.000000
      vertex 4.000000 4.000000 8.000000
      vertex 4.000000 19.000000 8.000000
    endloop
  endfacet
  facet normal 0.000000 0.000000 -0.000000
    outer loop
      vertex 6.000000 0.000000 10.000000
      vertex 6.000000 4.000000 10.000000
      vertex 6.000000 19.000000 10.000000
    endloop
  endfacet
  facet normal 0.707107 -0.000000 -0.707107
    outer loop
      vertex 6.000000 19.000000 10.000000
      vertex 6.000000 4.000000 10.000000
      vertex 4.000000 19.000000 8.000000
    endloop
  endfacet
  facet normal 0.000000 0.000000 -0.000000
    outer loop
      vertex 6.000000 0.000000 10.000000
      vertex 6.000000 19.000000 10.000000
      vertex 6.000000 23.000000 10.000000
    endloop
  endfacet
  facet normal 0.000000 1.000000 0.000000
    outer loop
      vertex 2.000000 23.000000 8.000000
      vertex 2.000000 23.000000 10.000000
      vertex 4.000000 23.000000 8.000000
    endloop
  endfacet
  facet normal 0.000000 1.000000 0.000000
    outer loop
      vertex 4.000000 23.000000 8.000000
      vertex 2.000000 23.000000 10.000000
      vertex 6.000000 23.000000 10.000000
    endloop
  endfacet
  facet normal 0.000000 0.000000 1.000000
    outer loop
      vertex 28.500000 23.000000 10.000000
      vertex 24.500000 23.000000 10.000000
      vertex 24.500000 -0.000000 10.000000
    endloop
  endfacet
  facet normal -0.000000 0.000000 1.000000
    outer loop
      vertex 28.500000 -0.000000 10.000000
      vertex 28.500000 23.000000 10.000000
      vertex 24.500000 -0.000000 10.000000
    endloop
  endfacet
  facet normal 0.000000 -0.000000 1.000000
    outer loop
      vertex 4.000000 19.000000 6.500000
      vertex 4.000000 4.000000 6.500000
      vertex 6.000000 4.000000 6.500000
    endloop
  endfacet
  facet normal 0.000000 0.000000 1.000000
    outer loop
      vertex 6.000000 19.000000 6.500000
      vertex 4.000000 19.000000 6.500000
      vertex 6.000000 4.000000 6.500000
    endloop
  endfacet
  facet normal 1.000000 0.000000 0.000000
    outer loop
      vertex 4.000000 19.000000 6.500000
      vertex 4.000000 19.000000 8.000000
      vertex 4.000000 4.000000 8.000000
    endloop
  endfacet
  facet normal 1.000000 0.000000 0.000000
    outer loop
      vertex 4.000000 4.000000 6.500000
      vertex 4.000000 19.000000 6.500000
      vertex 4.000000 4.000000 8.000000
    endloop
  endfacet
  facet normal -1.000000 -0.000000 -0.000000
    outer loop
      vertex 26.500000 4.000000 4.000000
      vertex 26.500000 4.000000 8.000000
      vertex 26.500000 19.000000 4.000000
    endloop
  endfacet
  facet normal -1.000000 0.000000 0.000000
    outer loop
      vertex 26.500000 19.000000 4.000000
      vertex 26.500000 4.000000 8.000000
      vertex 26.500000 19.000000 8.000000
    endloop
  endfacet
  facet normal 0.000000 0.000000 1.000000
    outer loop
      vertex 26.500000 4.000000 4.000000
      vertex 26.500000 19.000000 4.000000
      vertex 22.500000 19.000000 4.000000
    endloop
  endfacet
  facet normal 0.000000 0.000000 1.000000
    outer loop
      vertex 22.500000 4.000000 4.000000
      vertex 26.500000 4.000000 4.000000
      vertex 22.500000 19.000000 4.000000
    endloop
  endfacet
  facet normal 0.000000 -0.000000 1.000000
    outer loop
      vertex 2.000000 23.000000 10.000000
      vertex 2.000000 0.000000 10.000000
      vertex 6.000000 0.000000 10.000000
    endloop
  endfacet
  facet normal 0.000000 0.000000 1.000000
    outer loop
      vertex 6.000000 23.000000 10.000000
      vertex 2.000000 23.000000 10.000000
      vertex 6.000000 0.000000 10.000000
    endloop
  endfacet
endsolid OpenSCAD_Model
